PathFileType	4	(X/Y/Z)	C:/Users/beibeiliu/ov580/test_trc/User3\sequence.7_training_dense_right.trc
DataRate	CameraRate	NumFrames	NumMarkers	Units	OrigDataRate	OrigDataStartFrame	OrigNumFrames
120	120	20	19	mm	120	119	236
Frame#	Time	ThumbCMC			ThumbMCP			ThumbIP			ThumbTip			IndexMCP			IndexPIP			IndexTip			MiddleMCP			MiddlePIP			MiddleTip			RingMCP			RingPIP			RingTip			PinkyMCP			PinkyPIP			PinkyTip			BackHand1			BackHand2			BackHand3	
		X0	Y0	Z0	X1	Y1	Z1	X2	Y2	Z2	X3	Y3	Z3	X4	Y4	Z4	X5	Y5	Z5	X6	Y6	Z6	X7	Y7	Z7	X8	Y8	Z8	X9	Y9	Z9	X10	Y10	Z10	X11	Y11	Z11	X12	Y12	Z12	X13	Y13	Z13	X14	Y14	Z14	X15	Y15	Z15	X16	Y16	Z16	X17	Y17	Z17	X18	Y18	Z18	
118	0.983333	85.4215	-19.4373	54.1133	68.3205	-36.9104	25.8425	61.3181	-53.0947	3.33502	74.268	-69.8338	-15.4574	99.9382	-6.21119	-19.494	96.3869	-5.23534	-46.8754	95.2426	-7.46132	-73.3865	105.539	-35.6873	-25.6759	86.2966	-62.402	-26.6329	91.0575	-60.4914	13.6597	117.841	-56.0102	-19.6569	100.6	-77.7004	-6.27765	95.8917	-66.4347	22.9844	134.689	-62.0114	-7.2007	113.303	-82.85	0.190998	107.375	-72.5616	24.1602	145.111	-20.0626	24.8974	150.392	-21.1364	55.5781	119.984	-1.50111	39.1118	
119	0.991667	82.9524	-23.9901	54.7609	63.6524	-41.8972	30.8096	59.4985	-58.408	7.95464	69.8899	-76.2875	-8.76308	91.812	-11.0326	-17.591	88.6279	-13.6367	-46.7606	84.2404	-16.4402	-70.4467	97.6149	-42.4351	-26.7109	80.1392	-68.8772	-20.6163	87.3555	-65.4728	15.5886	111.327	-55.2279	-15.892	96.1031	-81.5435	-3.85474	93.3774	-71.6174	23.572	132.157	-66.074	-6.07449	108.543	-84.3054	0.0768034	104.299	-75.4972	27.0471	138.315	-22.6815	25.6361	145.063	-19.2798	52.168	112.544	-4.41546	41.0641	
120	1	79.7247	-25.8895	58.94	59.0428	-46.6349	33.6951	56.4679	-65.6613	12.1025	66.1923	-82.7785	-3.33786	85.9368	-17.782	-20.4899	77.1586	-18.3837	-43.8898	73.7075	-23.7771	-66.3549	88.5027	-47.7347	-23.0924	76.1737	-74.6214	-17.1624	83.1088	-68.7706	22.7366	106.511	-60.8353	-13.2557	93.0793	-86.2532	-2.60831	93.6791	-76.5849	29.3192	126.899	-69.7447	-4.55371	107.998	-89.3891	0.580077	102.557	-79.5548	31.0566	132.557	-24.64	21.3855	142.855	-19.1907	55.0243	110.878	-5.68173	41.0243	
121	1.00833	77.5934	-28.5683	60.9765	58.2064	-51.2367	45.096	53.6402	-72.2915	17.5113	63.3477	-90.0731	3.28979	79.1575	-24.2678	-14.6475	65.5887	-26.4524	-41.8541	61.3188	-31.5044	-65.2596	88.9579	-53.7025	-17.3417	71.0915	-81.0124	-10.7372	83.8702	-70.8267	28.7885	104.25	-67.458	-10.0608	90.7393	-91.0277	6.45529	89.8621	-76.0551	35.7618	120.785	-74.1222	-2.94353	103.101	-92.0506	5.34391	102.522	-82.5943	36.4869	130.3	-27.1687	22.0704	141.756	-23.2906	51.7659	108.931	-11.5924	40.2257	
122	1.01667	75.5247	-29.7683	63.2278	55.6395	-54.9372	48.5395	51.7825	-76.4134	26.1101	65.1612	-93.1176	9.99097	70.357	-29.8237	-13.9183	58.62	-34.9988	-37.982	51.1634	-39.6702	-55.462	82.7055	-58.5197	-12.8075	70.1207	-87.2847	-3.07155	80.0488	-73.7394	34.9282	99.0892	-74.1978	-5.52389	86.8954	-95.3795	13.7625	92.2812	-78.3535	42.7602	113.129	-78.085	0.897151	100.917	-95.6244	12.3057	105.552	-81.803	43.004	129.333	-30.3861	20.4751	142.327	-23.3558	53.5882	104.184	-9.19996	44.5342	
123	1.025	76.5399	-30.7397	67.8003	54.4394	-57.8941	50.2005	51.6894	-78.3745	33.0049	59.7033	-101.279	15.5376	66.7619	-34.4521	-10.2349	53.8068	-40.7151	-31.216	45.4975	-51.0883	-56.3439	80.0314	-66.251	-9.05992	66.7801	-91.9999	6.79677	78.3104	-76.2083	39.9363	94.7025	-79.3853	-1.50124	84.7944	-97.8487	20.8121	92.1606	-80.7833	46.7076	116.346	-82.6169	4.98564	100.877	-99.7799	24.9173	104.973	-83.215	49.402	128.607	-33.4171	22.1818	140.343	-22.489	51.8072	103.131	-13.0475	44.6341	
124	1.03333	78.9763	-33.3366	66.7493	57.6301	-57.2556	54.9087	50.2881	-82.4201	35.6912	62.4449	-100.801	20.9631	63.6956	-39.2105	-10.2113	50.5916	-47.4166	-29.3513	38.9205	-55.9806	-49.1809	73.243	-70.2462	-6.30147	66.5353	-95.4743	8.66007	81.3027	-77.7801	43.8302	95.582	-82.7406	3.93946	86.5127	-101.105	26.3127	90.8483	-78.3827	52.0414	112.327	-89.5135	9.16153	100.124	-100.445	31.4705	103.833	-81.7381	51.6418	124.269	-36.1508	22.535	136.918	-22.6486	52.0521	101.076	-14.0645	44.0157	
125	1.04167	79.6573	-31.6263	68.0467	56.145	-58.5133	54.77	49.9394	-81.4303	38.6768	59.8785	-102.009	21.2512	64.556	-39.6105	-6.25167	48.6848	-47.2634	-25.8337	36.5083	-59.2484	-48.5315	77.4454	-71.2757	-5.11414	61.6539	-95.3975	15.5012	82.2073	-76.068	45.4534	91.3024	-82.3985	5.89956	86.2451	-100.553	31.963	90.3662	-79.7377	53.2734	110.455	-85.5761	12.2841	98.1286	-100.921	29.8371	102.889	-82.5173	53.236	127.868	-37.085	20.0879	139.512	-26.585	49.0648	102.274	-15.7187	42.2532	
126	1.05	81.1744	-31.7102	66.2269	58.4465	-55.1251	55.1533	47.607	-78.8645	37.0185	57.6916	-98.171	23.7675	64.436	-37.4024	-6.52481	51.2833	-48.0786	-30.3515	41.2922	-58.0946	-49.5704	76.6217	-72.4049	-6.52556	64.2916	-94.9844	13.6293	81.4538	-78.0689	43.4941	93.6625	-85.1724	5.08586	83.7326	-99.5201	28.7221	94.0516	-78.2734	54.329	112.121	-88.0049	11.791	100.04	-101.802	33.2823	102.486	-80.6966	54.3336	126.042	-36.1616	20.2825	143.423	-27.1746	48.2116	105.062	-14.0597	39.5436	
127	1.05833	82.2611	-28.3868	64.3491	61.713	-52.0339	49.8305	48.8463	-73.6229	36.0082	56.0094	-94.5528	19.3516	70.5065	-36.9394	-10.872	51.705	-41.2158	-32.0436	40.5078	-50.7861	-53.0038	76.5906	-66.2296	-7.88632	65.2824	-91.89	11.3376	81.2376	-73.519	42.4443	92.1567	-79.4172	2.69725	83.6227	-98.3735	28.4157	93.4298	-79.6804	51.0717	110.07	-90.827	8.64687	96.7938	-98.7194	32.2509	103.619	-80.3382	53.7746	129.701	-38.7899	19.2566	142.911	-26.3988	51.6091	110.868	-15.6539	42.2197	
128	1.06667	82.752	-24.6213	65.3455	62.4027	-46.5559	50.8427	50.1664	-68.1755	30.6419	54.4028	-90.8237	11.7057	71.9001	-29.764	-12.7345	60.514	-35.6773	-32.2447	47.9228	-42.3937	-53.7722	81.3965	-59.9833	-10.0223	62.6592	-86.0223	5.66406	81.1593	-70.3693	38.7243	92.613	-76.1382	-2.62791	81.706	-95.1462	20.5673	90.6584	-75.9585	46.6405	112.616	-87.8361	4.84316	95.973	-97.6315	21.5896	99.4364	-81.2439	44.7319	131.488	-37.7077	18.002	147.88	-27.0354	47.1328	113.693	-13.6764	42.0285	
129	1.075	87.007	-25.6247	60.6583	63.8181	-43.6259	43.8906	49.0376	-62.4398	24.4973	53.5998	-83.3771	6.68479	77.7776	-25.3888	-17.6406	63.4072	-25.7859	-35.3537	53.9417	-31.7331	-58.1407	81.2155	-55.2941	-16.673	67.152	-81.7531	-1.94244	80.8458	-66.5082	33.8931	97.524	-68.9231	-7.53558	84.5608	-91.2958	7.73095	92.7629	-76.0967	40.2174	116.102	-76.4636	0.048993	99.6798	-95.8166	16.7572	104.457	-81.4714	41.1303	134.359	-32.8113	18.8624	147.433	-25.4139	50.3634	114.843	-9.44306	40.4059	
130	1.08333	90.3724	-23.5855	60.6178	63.7651	-41.1106	38.5507	54.9238	-58.2823	15.82	60.1906	-76.9816	-0.560683	83.1666	-17.9079	-16.5184	68.9138	-17.1697	-37.5288	64.4881	-21.49	-61.8967	89.3873	-51.8978	-21.6398	71.083	-75.0018	-8.78003	82.6197	-66.9053	25.1901	103.332	-64.8442	-12.8371	87.3456	-86.2737	2.35141	93.4595	-73.5302	34.3037	117.744	-72.445	-5.76847	104.031	-91.8945	4.5665	102.531	-80.3101	35.341	136.596	-27.4793	18.1229	152.871	-27.1834	48.2496	118.192	-9.571	39.5158	
131	1.09167	92.2221	-23.0788	55.2122	69.036	-38.8915	38.6892	55.6373	-55.58	10.9806	61.7857	-72.1805	-6.26842	86.9142	-11.3715	-15.6739	78.3188	-10.4145	-39.7623	69.5239	-10.3643	-63.6286	97.0135	-43.1497	-22.5634	75.5105	-70.1918	-15.7714	88.9477	-65.1618	20.0636	109.981	-59.2337	-15.653	91.3896	-82.4652	-5.37138	97.403	-71.7998	27.8011	124.947	-69.2157	-9.8021	105.307	-87.237	1.0122	104.918	-80.6005	29.1014	140.679	-26.3471	20.1668	153.939	-23.7654	44.4192	121.432	-7.51479	36.5988	
132	1.1	91.3102	-21.1134	57.7771	69.8994	-37.1891	34.3588	59.2961	-52.2822	5.18154	68.8666	-68.8717	-11.0928	96.612	-12.04	-19.1373	88.2019	-9.08854	-43.7713	78.8393	-3.32595	-70.9346	99.9367	-37.2398	-26.8388	80.584	-67.4197	-23.2111	88.7155	-65.3259	12.8732	113.288	-57.2092	-19.5513	95.297	-79.2019	-11.9938	96.4894	-69.9082	22.5056	131.552	-66.3764	-10.7	107.857	-84.3726	-3.06362	107.128	-75.5273	22.1637	147.607	-25.0965	18.3682	158.564	-25.9831	48.1635	125.398	-4.46427	40.4158	
133	1.10833	93.3435	-20.0894	54.6483	76.4847	-36.8712	26.3013	67.6463	-50.4984	4.15509	73.2657	-67.3529	-15.1293	99.7824	-7.18469	-23.3032	93.7157	-5.79167	-47.7927	93.9079	-4.40831	-74.3132	108.022	-41.1536	-30.7517	84.8137	-62.1158	-30.6377	91.4128	-65.3911	9.31035	120.255	-57.192	-20.965	102.424	-80.6697	-13.5549	103.085	-74.0473	19.7805	134.644	-70.4224	-13.5272	112.358	-86.7388	-2.53031	109.037	-75.5385	20.0037	149.078	-26.9304	17.2924	156.805	-22.7314	45.1369	126.248	-5.2104	37.6187	
134	1.11667	100.225	-21.2921	50.8755	80.4266	-36.0242	26.501	66.706	-49.3826	-2.36778	76.1046	-66.8061	-21.8397	110.633	-9.66169	-24.617	102.902	-4.72636	-48.2854	103.224	-3.47776	-76.3481	112.257	-38.2707	-33.2495	91.2738	-64.7628	-32.6234	96.1884	-63.9271	9.44616	123.064	-56.168	-23.1409	104.609	-79.3265	-16.0904	101.882	-68.5815	19.5952	139.12	-67.997	-11.9166	113.719	-83.418	-3.84422	110.923	-74.0629	21.3926	153.925	-25.5217	19.3465	161.001	-26.5396	50.4649	134.609	-7.29713	37.4651	
135	1.125	100.655	-19.6807	45.6815	79.5735	-34.573	21.7549	70.7019	-49.0398	-6.52115	81.2635	-66.2484	-23.1209	114.586	-8.53733	-25.5858	115.507	-8.84285	-51.827	116.656	-7.44988	-76.7896	119.347	-42.7047	-36.1917	97.4705	-65.9871	-35.7708	95.0359	-67.0188	2.67646	126.229	-60.0496	-25.406	106.793	-80.6502	-13.8836	106.058	-73.6371	16.0893	140.822	-70.6551	-11.7203	117.175	-86.5011	-1.77322	114.547	-74.8464	24.5231	157.227	-29.8748	15.1892	164.649	-25.781	49.2394	135.313	-8.58216	31.9132	
136	1.13333	102.79	-20.3783	45.7144	87.1332	-35.8189	18.0193	79.2597	-50.1662	-7.24469	86.4888	-67.1109	-25.5945	124.935	-13.49	-26.7896	120.839	-7.58054	-52.9803	125.711	-9.78857	-80.9521	125.65	-44.0095	-36.3987	102.073	-64.4477	-40.212	98.699	-68.2447	-0.578636	135.101	-61.8129	-23.7052	113.564	-81.9621	-16.868	108.8	-73.2165	17.1294	144.57	-72.7959	-12.6239	121.036	-87.2531	-1.37483	116.124	-72.7816	23.3233	162.341	-30.9414	14.8986	167.893	-31.3363	49.9087	140.677	-8.83953	31.1009	
137	1.14167	104.727	-20.6444	43.0464	89.2259	-36.0692	14.2203	80.8346	-49.7794	-13.343	90.165	-68.4753	-25.4669	130.537	-13.3291	-32.0465	128.506	-10.6664	-56.0032	131.907	-9.56445	-80.4535	130.731	-45.1265	-37.1322	103.898	-67.831	-38.5626	100.408	-66.2407	-1.10459	137.801	-64.6567	-26.5117	113.286	-82.9144	-15.6952	110.564	-70.374	15.7225	145.033	-75.5536	-13.3712	123.555	-87.8518	-3.056	122.603	-75.1839	26.2677	168.655	-34.6523	17.189	168.475	-27.6528	47.4823	141.307	-8.62864	29.976	
